<svg width="403" height="403" xmlns="http://www.w3.org/2000/svg" xmlns:xlink="http://www.w3.org/1999/xlink" xml:space="preserve" overflow="hidden"><g transform="translate(-172 -88)"><path d="M472.113 155.167 491.042 155.167 491.042 121.583 255.958 121.583 255.958 155.167 274.58 155.167C284.962 200.995 314.641 262.633 347.322 289.555 314.633 316.459 286.183 376.959 276.108 423.833L255.958 423.833 255.958 457.417 491.042 457.417 491.042 423.833 472.088 423.833C461.921 378.223 432.271 316.686 399.258 289.555 432.3 262.398 461.967 200.806 472.113 155.167ZM264.354 129.979 482.646 129.979 482.646 146.771 264.354 146.771ZM482.646 449.021 264.354 449.021 264.354 432.229 291.38 432.229 291.38 432.326 456.862 432.326 456.841 432.229 482.646 432.229ZM301.854 423.833C306.219 406.532 312.168 389.669 319.624 373.458L428.006 373.458C435.672 389.639 441.8 406.505 446.309 423.833ZM389.931 286.142C388.049 287.496 387.622 290.12 388.977 292.002 389.241 292.368 389.563 292.69 389.931 292.955 422.616 316.522 452.862 377.925 463.516 423.833L454.94 423.833C450.055 404.387 443.191 385.493 434.454 367.447L433.308 365.062 314.259 365.062 313.13 367.489C304.637 385.558 297.978 404.434 293.253 423.833L284.643 423.833C295.049 377.555 324.632 316.022 356.637 292.963 358.518 291.609 358.945 288.985 357.59 287.103 357.326 286.737 357.004 286.415 356.637 286.15 324.288 262.839 294.029 201.344 283.157 155.167L463.545 155.167C452.912 201.1 422.674 262.558 389.931 286.142Z"/></g></svg>